<?xml version="1.0" standalone="no"?><!DOCTYPE svg PUBLIC "-//W3C//DTD SVG 1.1//EN" "http://www.w3.org/Graphics/SVG/1.1/DTD/svg11.dtd"><svg t="1528600939936" class="icon" style="" viewBox="0 0 1024 1024" version="1.1" xmlns="http://www.w3.org/2000/svg" p-id="2918" xmlns:xlink="http://www.w3.org/1999/xlink" width="128" height="128"><defs><style type="text/css"></style></defs><path d="M499.7587 800.00032 184.85566 474.771097l80.721463-65.702398 182.094268 145.004535c74.617441-90.096994 240.284575-268.907473 468.845131-411.111219l19.241226 45.057195C725.971791 383.722428 554.202683 659.205667 499.7587 800.00032L499.7587 800.00032 499.7587 800.00032zM894.33329 417.391249c7.199982 29.791513 11.047614 60.889789 11.047614 92.89369 0 217.60197-176.406732 394.009725-394.018935 394.009725-217.604016 0-394.013819-176.411849-394.013819-394.009725 0-217.60811 176.408779-394.017912 394.013819-394.017912 54.121642 0 105.691157 10.921747 152.634306 30.66644L663.996275 92.050486c-47.605228-17.377786-99.013061-26.861788-152.634306-26.861788-245.815545 0-445.092148 199.276602-445.092148 445.096241 0 245.810429 199.276602 445.087031 445.092148 445.087031 245.820662 0 445.095217-199.276602 445.095217-445.087031 0-31.858592-3.354398-62.932308-9.717316-92.89369L894.33329 417.391249 894.33329 417.391249zM894.33329 417.391249" p-id="2919"></path></svg>