<?xml version="1.0" standalone="no"?><!DOCTYPE svg PUBLIC "-//W3C//DTD SVG 1.1//EN" "http://www.w3.org/Graphics/SVG/1.1/DTD/svg11.dtd"><svg t="1528621537535" class="icon" style="" viewBox="0 0 1030 1024" version="1.1" xmlns="http://www.w3.org/2000/svg" p-id="2019" xmlns:xlink="http://www.w3.org/1999/xlink" width="128.75" height="128"><defs><style type="text/css"></style></defs><path d="M522.24 976.896c-111.616 0-216.064-43.008-294.912-120.32-10.24-9.728-10.24-26.112-0.512-36.352s26.112-10.24 36.352-0.512c69.12 68.096 161.28 105.984 259.072 105.984 91.136 0 179.2-33.792 247.296-94.72 10.752-9.216 26.624-8.704 36.352 2.048 9.216 10.752 8.704 26.624-2.048 36.352-77.824 69.12-177.664 107.52-281.6 107.52zM908.8 661.504c-2.048 0-3.584 0-5.632-0.512-13.824-3.072-22.528-16.896-19.456-30.72 5.12-23.04 7.68-47.616 7.68-73.728 0-163.328-109.056-309.248-265.728-354.816-13.824-4.096-21.504-18.432-17.408-31.744 4.096-13.312 18.432-21.504 31.744-17.408 85.504 25.088 162.816 78.336 217.088 149.504 55.808 73.728 85.504 161.792 85.504 254.464 0 29.696-3.072 58.368-8.704 84.992-2.56 11.776-13.312 19.968-25.088 19.968zM135.68 662.528c-11.776 0-22.528-8.704-25.088-20.48-5.632-29.696-8.704-57.856-8.704-85.504 0-185.856 118.784-347.136 295.936-401.92 13.312-4.096 27.648 3.584 32.256 16.896 4.096 13.312-3.584 27.648-16.896 32.256-155.648 48.128-260.096 189.44-260.096 352.768 0 24.064 2.56 49.152 7.68 75.264 2.56 13.824-6.144 27.136-19.968 30.208-2.048 0.512-3.584 0.512-5.12 0.512z" p-id="2020"></path><path d="M519.168 301.056c-76.8 0-139.264-62.464-139.264-139.264S442.368 22.528 519.168 22.528s139.264 62.464 139.264 139.264-62.464 139.264-139.264 139.264z m0-227.328c-48.64 0-88.064 39.424-88.064 88.064s39.424 88.064 88.064 88.064 88.064-39.424 88.064-88.064-39.424-88.064-88.064-88.064zM869.376 887.296c-35.84 0-70.144-13.824-95.744-38.4-28.16-26.624-43.52-62.464-43.52-100.864 0-76.8 62.464-139.264 139.264-139.264s139.264 62.464 139.264 139.264-62.464 139.264-139.264 139.264z m0-227.328c-48.64 0-88.064 39.424-88.064 88.064 0 24.576 9.728 47.104 27.648 64 16.384 15.36 37.888 24.064 60.416 24.064 48.64 0 88.064-39.424 88.064-88.064s-39.424-88.064-88.064-88.064zM175.104 887.296c-76.8 0-139.264-62.464-139.264-139.264s62.464-139.264 139.264-139.264 139.264 62.464 139.264 139.264-62.464 139.264-139.264 139.264z m0-227.328c-48.64 0-88.064 39.424-88.064 88.064s39.424 88.064 88.064 88.064 88.064-39.424 88.064-88.064-39.424-88.064-88.064-88.064zM516.608 690.688c-78.336 0-142.336-64-142.336-142.336s64-142.336 142.336-142.336 142.336 64 142.336 142.336-64 142.336-142.336 142.336z m0-233.472c-50.176 0-91.136 40.96-91.136 91.136s40.96 91.136 91.136 91.136 91.136-40.96 91.136-91.136-40.96-91.136-91.136-91.136z" p-id="2021"></path></svg>