<?xml version="1.0" standalone="no"?><!DOCTYPE svg PUBLIC "-//W3C//DTD SVG 1.1//EN" "http://www.w3.org/Graphics/SVG/1.1/DTD/svg11.dtd"><svg t="1528699020052" class="icon" style="" viewBox="0 0 1024 1024" version="1.1" xmlns="http://www.w3.org/2000/svg" p-id="3805" xmlns:xlink="http://www.w3.org/1999/xlink" width="128" height="128"><defs><style type="text/css"></style></defs><path d="M977.454545 1024 46.545455 1024C20.829091 1024 0 1003.170909 0 977.454545L0 46.545455C0 20.829091 20.829091 0 46.545455 0L977.454545 0C1003.170909 0 1024 20.829091 1024 46.545455L1024 977.454545C1024 1003.170909 1003.170909 1024 977.454545 1024ZM930.909091 139.636364C930.909091 113.92 910.08 93.090909 884.363636 93.090909L139.636364 93.090909C113.92 93.090909 93.090909 113.92 93.090909 139.636364L93.090909 279.272727 930.909091 279.272727 930.909091 139.636364ZM930.909091 372.363636 93.090909 372.363636 93.090909 884.363636C93.090909 910.08 113.92 930.909091 139.636364 930.909091L884.363636 930.909091C910.08 930.909091 930.909091 910.08 930.909091 884.363636L930.909091 372.363636ZM837.818182 884.363636 744.727273 884.363636C719.010909 884.363636 698.181818 863.511273 698.181818 837.818182 698.181818 812.101818 719.010909 791.272727 744.727273 791.272727L837.818182 791.272727C863.534545 791.272727 884.363636 812.101818 884.363636 837.818182 884.363636 863.511273 863.534545 884.363636 837.818182 884.363636ZM837.818182 698.181818 744.727273 698.181818C719.010909 698.181818 698.181818 677.352727 698.181818 651.636364 698.181818 625.92 719.010909 605.090909 744.727273 605.090909L837.818182 605.090909C863.534545 605.090909 884.363636 625.92 884.363636 651.636364 884.363636 677.352727 863.534545 698.181818 837.818182 698.181818ZM837.818182 512 744.727273 512C719.010909 512 698.181818 491.147636 698.181818 465.454545 698.181818 439.738182 719.010909 418.909091 744.727273 418.909091L837.818182 418.909091C863.534545 418.909091 884.363636 439.738182 884.363636 465.454545 884.363636 491.147636 863.534545 512 837.818182 512ZM605.090909 837.818182 186.181818 837.818182C160.465455 837.818182 139.636364 816.989091 139.636364 791.272727 139.636364 765.556364 160.465455 744.727273 186.181818 744.727273L605.090909 744.727273C630.807273 744.727273 651.636364 765.556364 651.636364 791.272727 651.636364 816.989091 630.807273 837.818182 605.090909 837.818182ZM605.090909 698.181818 186.181818 698.181818C160.465455 698.181818 139.636364 677.352727 139.636364 651.636364 139.636364 625.92 160.465455 605.090909 186.181818 605.090909L605.090909 605.090909C630.807273 605.090909 651.636364 625.92 651.636364 651.636364 651.636364 677.352727 630.807273 698.181818 605.090909 698.181818ZM605.090909 558.545455 186.181818 558.545455C160.465455 558.545455 139.636364 537.716364 139.636364 512 139.636364 486.283636 160.465455 465.454545 186.181818 465.454545L605.090909 465.454545C630.807273 465.454545 651.636364 486.283636 651.636364 512 651.636364 537.716364 630.807273 558.545455 605.090909 558.545455ZM558.545455 139.636364C584.261818 139.636364 605.090909 160.465455 605.090909 186.181818 605.090909 211.898182 584.261818 232.727273 558.545455 232.727273 532.829091 232.727273 512 211.898182 512 186.181818 512 160.465455 532.829091 139.636364 558.545455 139.636364ZM698.181818 139.636364C723.898182 139.636364 744.727273 160.465455 744.727273 186.181818 744.727273 211.898182 723.898182 232.727273 698.181818 232.727273 672.465455 232.727273 651.636364 211.898182 651.636364 186.181818 651.636364 160.465455 672.465455 139.636364 698.181818 139.636364ZM837.818182 139.636364C863.534545 139.636364 884.363636 160.465455 884.363636 186.181818 884.363636 211.898182 863.534545 232.727273 837.818182 232.727273 812.101818 232.727273 791.272727 211.898182 791.272727 186.181818 791.272727 160.465455 812.101818 139.636364 837.818182 139.636364Z" p-id="3806"></path></svg>