<?xml version="1.0" standalone="no"?><!DOCTYPE svg PUBLIC "-//W3C//DTD SVG 1.1//EN" "http://www.w3.org/Graphics/SVG/1.1/DTD/svg11.dtd"><svg t="1528699074267" class="icon" style="" viewBox="0 0 1024 1024" version="1.1" xmlns="http://www.w3.org/2000/svg" p-id="3922" xmlns:xlink="http://www.w3.org/1999/xlink" width="128" height="128"><defs><style type="text/css"></style></defs><path d="M977.454545 1024 46.545455 1024C20.829091 1024 0 1003.170909 0 977.454545L0 46.545455C0 20.829091 20.829091 0 46.545455 0L977.454545 0C1003.170909 0 1024 20.829091 1024 46.545455L1024 977.454545C1024 1003.170909 1003.170909 1024 977.454545 1024ZM930.909091 139.636364C930.909091 113.92 910.08 93.090909 884.363636 93.090909L139.636364 93.090909C113.92 93.090909 93.090909 113.92 93.090909 139.636364L93.090909 279.272727 930.909091 279.272727 930.909091 139.636364ZM930.909091 372.363636 93.090909 372.363636 93.090909 884.363636C93.090909 910.08 113.92 930.909091 139.636364 930.909091L884.363636 930.909091C910.08 930.909091 930.909091 910.08 930.909091 884.363636L930.909091 372.363636ZM558.545455 139.636364C584.261818 139.636364 605.090909 160.465455 605.090909 186.181818 605.090909 211.898182 584.261818 232.727273 558.545455 232.727273 532.829091 232.727273 512 211.898182 512 186.181818 512 160.465455 532.829091 139.636364 558.545455 139.636364ZM698.181818 139.636364C723.898182 139.636364 744.727273 160.465455 744.727273 186.181818 744.727273 211.898182 723.898182 232.727273 698.181818 232.727273 672.465455 232.727273 651.636364 211.898182 651.636364 186.181818 651.636364 160.465455 672.465455 139.636364 698.181818 139.636364ZM837.818182 139.636364C863.534545 139.636364 884.363636 160.465455 884.363636 186.181818 884.363636 211.898182 863.534545 232.727273 837.818182 232.727273 812.101818 232.727273 791.272727 211.898182 791.272727 186.181818 791.272727 160.465455 812.101818 139.636364 837.818182 139.636364Z" p-id="3923"></path></svg>